<svg xmlns="http://www.w3.org/2000/svg" xmlns:xlink="http://www.w3.org/1999/xlink" width="75" zoomAndPan="magnify" viewBox="0 0 56.25 56.249997" height="75" preserveAspectRatio="xMidYMid meet" version="1.0"><defs><clipPath id="b3abceb698"><path d="M 0 0 L 55.507812 0 L 55.507812 55.511719 L 0 55.511719 Z M 0 0 " clip-rule="nonzero"/></clipPath><clipPath id="c545600ef3"><path d="M 14 14 L 55.511719 14 L 55.511719 55.511719 L 14 55.511719 Z M 14 14 " clip-rule="nonzero"/></clipPath></defs><g clip-path="url(#b3abceb698)"><path fill="#100f0d" d="M 43.515625 20.40625 L 33.023438 9.914062 L 35.101562 7.835938 L 47.675781 20.40625 L 45.59375 22.484375 Z M 9.199219 52.585938 C 8.847656 51.0625 8.089844 49.679688 6.960938 48.550781 C 5.832031 47.421875 4.449219 46.664062 2.921875 46.3125 L 3.710938 39.230469 L 3.980469 38.957031 L 8.859375 39.65625 L 9.613281 44.9375 C 9.683594 45.429688 10.078125 45.824219 10.570312 45.894531 L 15.855469 46.648438 L 16.550781 51.527344 L 16.28125 51.796875 Z M 2.699219 48.324219 C 3.769531 48.613281 4.738281 49.167969 5.539062 49.96875 C 6.34375 50.773438 6.898438 51.742188 7.1875 52.808594 L 2.140625 53.371094 Z M 5.757812 37.183594 L 31.605469 11.332031 L 33.683594 13.410156 L 17.488281 29.605469 L 9.394531 37.703125 Z M 40.679688 20.40625 L 16.386719 44.699219 L 11.507812 44 L 10.8125 39.121094 L 18.910156 31.027344 L 35.101562 14.832031 L 37.890625 17.617188 Z M 18.324219 49.753906 L 17.804688 46.117188 L 42.097656 21.824219 L 44.175781 23.902344 Z M 39.488281 3.449219 C 40.421875 2.519531 41.65625 2.007812 42.972656 2.007812 C 44.289062 2.007812 45.523438 2.519531 46.457031 3.449219 L 52.058594 9.054688 C 53.980469 10.976562 53.980469 14.101562 52.058594 16.019531 L 49.09375 18.988281 L 36.523438 6.417969 Z M 49.09375 21.824219 L 53.480469 17.441406 C 56.183594 14.738281 56.183594 10.339844 53.480469 7.636719 L 47.875 2.03125 C 46.566406 0.722656 44.824219 0 42.972656 0 C 41.121094 0 39.378906 0.722656 38.070312 2.03125 L 3.089844 37.011719 C 3.089844 37.011719 3.089844 37.015625 3.085938 37.015625 L 2.042969 38.058594 C 1.882812 38.21875 1.78125 38.429688 1.753906 38.65625 L 0.0078125 54.398438 C -0.0273438 54.699219 0.078125 55 0.292969 55.214844 C 0.484375 55.40625 0.738281 55.511719 1.003906 55.511719 C 1.039062 55.511719 1.078125 55.507812 1.113281 55.503906 L 16.855469 53.753906 C 17.078125 53.730469 17.289062 53.628906 17.453125 53.464844 L 18.496094 52.421875 C 18.5 52.417969 18.5 52.417969 18.5 52.417969 L 49.09375 21.824219 " fill-opacity="1" fill-rule="nonzero"/></g><g clip-path="url(#c545600ef3)"><path stroke-linecap="butt" transform="matrix(0.525781, -0.520912, 0.520912, 0.525781, 18.226168, 50.551992)" fill="none" stroke-linejoin="miter" d="M 0.000141912 0.503038 L 62.447568 0.49991 " stroke="#000000" stroke-width="1" stroke-opacity="1" stroke-miterlimit="4"/></g></svg>