<svg xmlns="http://www.w3.org/2000/svg" xmlns:xlink="http://www.w3.org/1999/xlink" width="84" zoomAndPan="magnify" viewBox="0 0 63 64.499998" height="86" preserveAspectRatio="xMidYMid meet" version="1.0"><defs><clipPath id="7109d4c4a1"><path d="M 0.242188 0 L 62 0 L 62 63.257812 L 0.242188 63.257812 Z M 0.242188 0 " clip-rule="nonzero"/></clipPath></defs><g clip-path="url(#7109d4c4a1)"><path fill="#000011" d="M 44.726562 21.589844 C 44.726562 21.097656 45.128906 20.695312 45.621094 20.695312 L 55.449219 20.695312 C 55.941406 20.695312 56.34375 21.097656 56.34375 21.589844 C 56.34375 22.085938 55.941406 22.488281 55.449219 22.488281 L 45.621094 22.488281 C 45.128906 22.488281 44.726562 22.085938 44.726562 21.589844 Z M 50.734375 9.667969 L 37.769531 15.105469 C 38.070312 16.054688 38.226562 17.042969 38.226562 18.039062 C 38.226562 18.582031 38.175781 19.128906 38.085938 19.664062 L 39.9375 19.433594 L 39.9375 17.171875 C 39.9375 16.679688 40.339844 16.277344 40.832031 16.277344 L 59.445312 16.277344 C 59.941406 16.277344 60.34375 16.679688 60.34375 17.171875 L 60.34375 29.523438 C 60.34375 30.015625 59.941406 30.417969 59.445312 30.417969 L 40.832031 30.417969 C 40.339844 30.417969 39.9375 30.015625 39.9375 29.523438 L 39.9375 26.835938 L 36.605469 23.40625 C 35.402344 25.226562 33.628906 26.589844 31.570312 27.28125 L 31.570312 30.851562 C 31.976562 30.660156 32.421875 30.5625 32.878906 30.5625 C 33.710938 30.5625 34.5 30.894531 35.082031 31.484375 C 35.664062 30.894531 36.449219 30.5625 37.285156 30.5625 C 38.917969 30.5625 40.261719 31.828125 40.382812 33.429688 C 40.789062 33.238281 41.238281 33.136719 41.695312 33.136719 C 43.40625 33.136719 44.796875 34.53125 44.796875 36.242188 L 44.796875 46 C 44.796875 47.304688 44.421875 48.441406 43.648438 49.484375 L 41.484375 52.414062 C 41.160156 52.851562 41.011719 53.308594 41.011719 53.851562 L 41.011719 55.183594 L 42.492188 55.183594 C 42.988281 55.183594 43.390625 55.585938 43.390625 56.078125 L 43.390625 62.363281 C 43.390625 62.855469 42.988281 63.257812 42.492188 63.257812 L 21.148438 63.257812 C 20.65625 63.257812 20.253906 62.855469 20.253906 62.363281 L 20.253906 56.078125 C 20.253906 55.585938 20.65625 55.183594 21.148438 55.183594 L 22.726562 55.183594 L 22.726562 53.851562 C 22.726562 53.308594 22.574219 52.851562 22.25 52.410156 L 20.636719 50.230469 C 19.863281 49.183594 19.484375 48.042969 19.484375 46.742188 L 19.484375 40.84375 C 19.0625 40.214844 18.816406 39.78125 18.574219 39.359375 C 18.253906 38.796875 17.953125 38.269531 17.207031 37.269531 C 15.917969 35.789062 16.257812 34.433594 17.003906 33.65625 C 17.644531 32.996094 18.679688 32.617188 19.847656 32.617188 C 21.304688 32.617188 22.796875 33.179688 24.046875 34.203125 C 24.074219 34.222656 24.097656 34.246094 24.117188 34.269531 C 24.296875 34.449219 24.585938 34.882812 25.363281 36.070312 L 25.363281 27.28125 C 23.121094 26.53125 21.25 25.003906 20.046875 22.957031 L 12.121094 26.660156 C 12.285156 27.21875 12.371094 27.792969 12.371094 28.375 C 12.371094 31.707031 9.660156 34.417969 6.328125 34.417969 C 2.992188 34.417969 0.28125 31.707031 0.28125 28.375 C 0.28125 25.042969 2.992188 22.332031 6.328125 22.332031 C 8.371094 22.332031 10.230469 23.339844 11.359375 25.035156 L 19.289062 21.332031 C 18.90625 20.273438 18.707031 19.167969 18.707031 18.039062 C 18.707031 16.179688 19.234375 14.378906 20.230469 12.816406 L 16.152344 9.671875 C 15.109375 10.644531 13.765625 11.179688 12.332031 11.179688 C 9.25 11.179688 6.742188 8.671875 6.742188 5.589844 C 6.742188 2.507812 9.25 0 12.332031 0 C 15.417969 0 17.929688 2.507812 17.929688 5.589844 C 17.929688 6.523438 17.691406 7.433594 17.25 8.25 L 21.328125 11.398438 C 23.175781 9.414062 25.761719 8.28125 28.464844 8.28125 C 32.09375 8.28125 35.367188 10.257812 37.074219 13.453125 L 50.03125 8.015625 C 49.90625 7.527344 49.84375 7.023438 49.84375 6.519531 C 49.84375 3.171875 52.566406 0.449219 55.914062 0.449219 C 59.261719 0.449219 61.988281 3.171875 61.988281 6.519531 C 61.988281 9.863281 59.261719 12.585938 55.914062 12.585938 C 53.796875 12.585938 51.835938 11.472656 50.734375 9.667969 Z M 51.636719 6.519531 C 51.636719 8.875 53.558594 10.792969 55.914062 10.792969 C 58.273438 10.792969 60.191406 8.875 60.191406 6.519531 C 60.191406 4.160156 58.273438 2.242188 55.914062 2.242188 C 53.558594 2.242188 51.636719 4.160156 51.636719 6.519531 Z M 16.132812 5.589844 C 16.132812 3.496094 14.429688 1.792969 12.332031 1.792969 C 10.238281 1.792969 8.535156 3.496094 8.535156 5.589844 C 8.535156 7.683594 10.238281 9.386719 12.332031 9.386719 C 14.429688 9.386719 16.132812 7.683594 16.132812 5.589844 Z M 10.574219 28.375 C 10.574219 26.03125 8.667969 24.125 6.328125 24.125 C 3.984375 24.125 2.074219 26.03125 2.074219 28.375 C 2.074219 30.71875 3.984375 32.625 6.328125 32.625 C 8.667969 32.625 10.574219 30.71875 10.574219 28.375 Z M 22.046875 56.976562 L 22.046875 61.464844 L 41.59375 61.464844 L 41.59375 56.976562 Z M 31.570312 33.664062 L 31.570312 38.988281 C 31.570312 39.484375 31.167969 39.886719 30.671875 39.886719 C 30.179688 39.886719 29.777344 39.484375 29.777344 38.988281 L 29.777344 20.242188 C 29.777344 19.519531 29.1875 18.933594 28.464844 18.933594 C 27.746094 18.933594 27.160156 19.519531 27.160156 20.242188 L 27.160156 38.882812 C 27.160156 39.128906 27.054688 39.367188 26.878906 39.535156 C 26.710938 39.695312 26.480469 39.785156 26.25 39.785156 C 26.214844 39.785156 26.179688 39.78125 26.144531 39.777344 C 25.628906 39.71875 25.542969 39.617188 23.871094 37.0625 C 23.503906 36.503906 23.011719 35.75 22.851562 35.542969 C 21.617188 34.558594 20.4375 34.410156 19.839844 34.410156 C 19.171875 34.410156 18.59375 34.59375 18.296875 34.902344 C 18.023438 35.183594 18.117188 35.589844 18.574219 36.109375 C 18.589844 36.125 18.605469 36.144531 18.621094 36.164062 C 19.453125 37.273438 19.785156 37.855469 20.132812 38.472656 C 20.382812 38.910156 20.640625 39.363281 21.121094 40.058594 C 21.226562 40.210938 21.28125 40.386719 21.28125 40.570312 L 21.28125 46.742188 C 21.28125 47.65625 21.535156 48.425781 22.082031 49.164062 L 23.691406 51.347656 C 24.25 52.097656 24.519531 52.917969 24.519531 53.851562 L 24.519531 55.183594 L 39.214844 55.183594 L 39.214844 53.851562 C 39.214844 52.917969 39.488281 52.097656 40.042969 51.347656 L 42.207031 48.417969 C 42.75 47.683594 43.003906 46.917969 43.003906 46 L 43.003906 36.242188 C 43.003906 35.519531 42.417969 34.929688 41.695312 34.929688 C 40.976562 34.929688 40.390625 35.519531 40.390625 36.242188 L 40.390625 38.988281 C 40.390625 39.484375 39.988281 39.886719 39.492188 39.886719 C 39 39.886719 38.597656 39.484375 38.597656 38.988281 L 38.597656 33.664062 C 38.597656 32.941406 38.007812 32.355469 37.285156 32.355469 C 36.566406 32.355469 35.976562 32.941406 35.976562 33.664062 L 35.976562 38.988281 C 35.976562 39.484375 35.574219 39.886719 35.082031 39.886719 C 34.585938 39.886719 34.183594 39.484375 34.183594 38.988281 L 34.183594 33.664062 C 34.183594 32.941406 33.597656 32.355469 32.878906 32.355469 C 32.15625 32.355469 31.570312 32.941406 31.570312 33.664062 Z M 32.253906 18.039062 C 32.253906 15.949219 30.554688 14.25 28.464844 14.25 C 26.378906 14.25 24.679688 15.949219 24.679688 18.039062 C 24.679688 18.824219 24.917969 19.574219 25.367188 20.207031 C 25.382812 18.515625 26.765625 17.140625 28.464844 17.140625 C 30.164062 17.140625 31.550781 18.511719 31.570312 20.203125 C 32.011719 19.570312 32.253906 18.824219 32.253906 18.039062 Z M 36.433594 18.039062 C 36.433594 13.644531 32.859375 10.074219 28.464844 10.074219 C 24.074219 10.074219 20.503906 13.644531 20.503906 18.039062 C 20.503906 21.226562 22.441406 24.128906 25.363281 25.367188 L 25.363281 22.667969 C 23.808594 21.628906 22.882812 19.90625 22.882812 18.039062 C 22.882812 14.960938 25.386719 12.457031 28.464844 12.457031 C 31.542969 12.457031 34.046875 14.960938 34.046875 18.039062 C 34.046875 19.90625 33.121094 21.625 31.570312 22.667969 L 31.570312 25.367188 C 33.132812 24.703125 34.449219 23.550781 35.320312 22.082031 L 34.78125 21.527344 C 34.542969 21.28125 34.464844 20.925781 34.578125 20.605469 C 34.695312 20.28125 34.976562 20.054688 35.316406 20.011719 L 36.210938 19.898438 C 36.355469 19.289062 36.433594 18.664062 36.433594 18.039062 Z M 37.324219 21.570312 L 41.476562 25.847656 C 41.640625 26.015625 41.730469 26.238281 41.730469 26.472656 L 41.730469 28.625 L 58.546875 28.625 L 58.546875 18.070312 L 41.730469 18.070312 L 41.730469 20.226562 C 41.730469 20.679688 41.390625 21.058594 40.945312 21.117188 Z M 45.621094 26 L 55.449219 26 C 55.941406 26 56.34375 25.597656 56.34375 25.105469 C 56.34375 24.609375 55.941406 24.207031 55.449219 24.207031 L 45.621094 24.207031 C 45.128906 24.207031 44.726562 24.609375 44.726562 25.105469 C 44.726562 25.597656 45.128906 26 45.621094 26 Z M 45.621094 26 " fill-opacity="1" fill-rule="nonzero"/></g><path stroke-linecap="butt" transform="matrix(0.743287, -0.0374755, 0.0374755, 0.743287, 21.408557, 56.229472)" fill="none" stroke-linejoin="miter" d="M -0.00206159 0.500498 L 26.795075 0.500942 " stroke="#000000" stroke-width="1" stroke-opacity="1" stroke-miterlimit="4"/></svg>