<svg xmlns="http://www.w3.org/2000/svg" xmlns:xlink="http://www.w3.org/1999/xlink" width="136" zoomAndPan="magnify" viewBox="0 0 102 101.999999" height="136" preserveAspectRatio="xMidYMid meet" version="1.0"><defs><clipPath id="da7a545d4c"><path d="M 45.121094 75.5 L 48.871094 75.5 L 48.871094 79.25 L 45.121094 79.25 Z M 45.121094 75.5 " clip-rule="nonzero"/></clipPath><clipPath id="b9996b0f7a"><path d="M 46.996094 75.5 C 47.492188 75.5 47.96875 75.695312 48.320312 76.046875 C 48.671875 76.398438 48.871094 76.875 48.871094 77.375 C 48.871094 77.871094 48.671875 78.347656 48.320312 78.699219 C 47.96875 79.050781 47.492188 79.25 46.996094 79.25 C 46.5 79.25 46.023438 79.050781 45.671875 78.699219 C 45.320312 78.347656 45.121094 77.871094 45.121094 77.375 C 45.121094 76.875 45.320312 76.398438 45.671875 76.046875 C 46.023438 75.695312 46.5 75.5 46.996094 75.5 Z M 46.996094 75.5 " clip-rule="nonzero"/></clipPath><clipPath id="e0d5dabe21"><path d="M 0.121094 0.5 L 3.871094 0.5 L 3.871094 4.25 L 0.121094 4.25 Z M 0.121094 0.5 " clip-rule="nonzero"/></clipPath><clipPath id="ef59480fd5"><path d="M 1.996094 0.5 C 2.492188 0.5 2.96875 0.695312 3.320312 1.046875 C 3.671875 1.398438 3.871094 1.875 3.871094 2.375 C 3.871094 2.871094 3.671875 3.347656 3.320312 3.699219 C 2.96875 4.050781 2.492188 4.25 1.996094 4.25 C 1.5 4.25 1.023438 4.050781 0.671875 3.699219 C 0.320312 3.347656 0.121094 2.871094 0.121094 2.375 C 0.121094 1.875 0.320312 1.398438 0.671875 1.046875 C 1.023438 0.695312 1.5 0.5 1.996094 0.5 Z M 1.996094 0.5 " clip-rule="nonzero"/></clipPath><clipPath id="fe0b4eb7fb"><rect x="0" width="4" y="0" height="5"/></clipPath></defs><path fill="#f8f7f6" d="M 88.164062 68.359375 L 4.773438 68.359375 C 2.148438 68.359375 0 66.210938 0 63.589844 L 0 11.332031 C 0 8.710938 2.148438 6.5625 4.773438 6.5625 L 60.964844 6.5625 C 61.621094 6.5625 62.15625 7.097656 62.15625 7.695312 L 62.15625 28.214844 C 62.15625 28.574219 62.453125 28.871094 62.8125 28.871094 L 91.804688 28.871094 C 92.460938 28.871094 92.996094 29.40625 92.996094 30.0625 L 92.996094 63.589844 C 92.996094 66.210938 90.847656 68.359375 88.164062 68.359375 Z M 4.773438 8.886719 C 3.460938 8.886719 2.328125 9.960938 2.328125 11.332031 L 2.328125 63.589844 C 2.328125 64.960938 3.460938 66.035156 4.773438 66.035156 L 88.164062 66.035156 C 89.535156 66.035156 90.667969 64.960938 90.667969 63.589844 L 90.667969 31.199219 L 62.8125 31.199219 C 61.140625 31.199219 59.828125 29.886719 59.828125 28.214844 L 59.828125 8.886719 Z M 4.773438 8.886719 " fill-opacity="1" fill-rule="evenodd"/><path fill="#f8f7f6" d="M 57.863281 89.894531 C 57.863281 89.894531 57.800781 89.894531 57.800781 89.894531 L 35.132812 89.894531 C 34.835938 89.894531 34.476562 89.773438 34.300781 89.476562 C 34.0625 89.238281 33.941406 88.878906 34 88.523438 L 37.640625 66.988281 C 37.757812 66.453125 38.234375 66.035156 38.773438 66.035156 L 54.222656 66.035156 C 54.757812 66.035156 55.238281 66.453125 55.355469 66.988281 L 58.933594 88.34375 C 58.996094 88.460938 58.996094 88.640625 58.996094 88.761719 C 58.996094 89.417969 58.457031 89.894531 57.863281 89.894531 Z M 36.566406 87.566406 L 56.429688 87.566406 L 53.207031 68.359375 L 39.789062 68.359375 Z M 36.566406 87.566406 " fill-opacity="1" fill-rule="evenodd"/><path fill="#f8f7f6" d="M 74.921875 99.140625 L 18.074219 99.140625 C 17.417969 99.140625 16.882812 98.601562 16.882812 98.007812 L 16.882812 88.761719 C 16.882812 88.105469 17.417969 87.566406 18.074219 87.566406 L 74.921875 87.566406 C 75.578125 87.566406 76.113281 88.105469 76.113281 88.761719 L 76.113281 98.007812 C 76.113281 98.601562 75.578125 99.140625 74.921875 99.140625 Z M 19.207031 96.8125 L 73.789062 96.8125 L 73.789062 89.894531 L 19.207031 89.894531 Z M 19.207031 96.8125 " fill-opacity="1" fill-rule="evenodd"/><path fill="#f8f7f6" d="M 46.46875 82.558594 C 43.960938 82.558594 41.933594 80.46875 41.933594 77.964844 C 41.933594 75.457031 43.960938 73.429688 46.46875 73.429688 C 49.03125 73.429688 51.0625 75.457031 51.0625 77.964844 C 51.0625 80.46875 49.03125 82.558594 46.46875 82.558594 Z M 46.46875 75.757812 C 45.273438 75.757812 44.261719 76.769531 44.261719 77.964844 C 44.261719 79.214844 45.273438 80.230469 46.46875 80.230469 C 47.722656 80.230469 48.734375 79.214844 48.734375 77.964844 C 48.734375 76.769531 47.722656 75.757812 46.46875 75.757812 Z M 46.46875 75.757812 " fill-opacity="1" fill-rule="evenodd"/><path fill="#f8f7f6" d="M 98.839844 31.199219 L 62.8125 31.199219 C 61.140625 31.199219 59.828125 29.886719 59.828125 28.214844 L 59.828125 5.605469 C 59.828125 3.996094 61.140625 2.683594 62.8125 2.683594 L 98.839844 2.683594 C 100.453125 2.683594 101.824219 3.996094 101.824219 5.605469 L 101.824219 28.214844 C 101.824219 29.886719 100.453125 31.199219 98.839844 31.199219 Z M 62.8125 5.011719 C 62.453125 5.011719 62.15625 5.308594 62.15625 5.605469 L 62.15625 28.214844 C 62.15625 28.574219 62.453125 28.871094 62.8125 28.871094 L 98.839844 28.871094 C 99.199219 28.871094 99.496094 28.574219 99.496094 28.214844 L 99.496094 5.605469 C 99.496094 5.308594 99.199219 5.011719 98.839844 5.011719 Z M 62.8125 5.011719 " fill-opacity="1" fill-rule="evenodd"/><path fill="#f8f7f6" d="M 52.851562 68.359375 L 10.261719 68.359375 C 9.605469 68.359375 9.066406 67.824219 9.066406 67.226562 L 9.066406 56.132812 C 9.066406 49.511719 13.839844 43.84375 20.402344 42.652344 C 20.996094 42.53125 21.59375 42.949219 21.714844 43.605469 C 21.832031 44.203125 21.414062 44.859375 20.816406 44.976562 C 20.757812 44.976562 20.757812 44.976562 20.757812 44.976562 C 15.332031 45.929688 11.394531 50.644531 11.394531 56.132812 L 11.394531 66.035156 L 51.65625 66.035156 L 51.65625 56.132812 C 51.65625 50.644531 47.78125 45.929688 42.351562 44.976562 C 42.292969 44.976562 42.292969 44.976562 42.292969 44.976562 C 41.695312 44.859375 41.277344 44.203125 41.398438 43.605469 C 41.515625 42.949219 42.113281 42.53125 42.710938 42.652344 C 49.273438 43.84375 53.984375 49.511719 53.984375 56.132812 L 53.984375 67.226562 C 53.984375 67.824219 53.507812 68.359375 52.851562 68.359375 Z M 52.851562 68.359375 " fill-opacity="1" fill-rule="evenodd"/><path fill="#f8f7f6" d="M 35.789062 52.910156 C 35.492188 52.910156 35.195312 52.792969 34.957031 52.613281 L 30.71875 48.496094 C 30.480469 48.257812 30.363281 47.898438 30.363281 47.542969 C 30.421875 47.242188 30.601562 46.886719 30.898438 46.707031 L 36.683594 42.652344 C 36.925781 42.53125 37.164062 42.472656 37.402344 42.472656 L 40.324219 42.472656 C 41.160156 42.472656 41.933594 42.53125 42.769531 42.652344 C 43.128906 42.769531 43.484375 43.007812 43.664062 43.425781 C 43.785156 43.785156 43.722656 44.261719 43.425781 44.558594 L 36.683594 52.492188 C 36.445312 52.730469 36.148438 52.910156 35.851562 52.910156 C 35.851562 52.910156 35.789062 52.910156 35.789062 52.910156 Z M 33.40625 47.78125 L 35.730469 50.046875 L 40.203125 44.796875 L 37.757812 44.796875 Z M 33.40625 47.78125 " fill-opacity="1" fill-rule="evenodd"/><path fill="#f8f7f6" d="M 31.554688 42.351562 C 25.054688 42.351562 19.746094 37.042969 19.746094 30.542969 L 19.746094 27.5 C 19.746094 27.023438 19.984375 26.605469 20.402344 26.425781 C 21.832031 25.710938 23.023438 25.113281 24.039062 24.515625 C 27.679688 22.667969 29.46875 21.773438 31.4375 21.773438 C 33.285156 21.773438 34.957031 22.609375 38.234375 24.21875 C 39.488281 24.875 40.921875 25.589844 42.652344 26.425781 C 43.066406 26.605469 43.367188 27.023438 43.367188 27.5 L 43.367188 30.542969 C 43.367188 37.042969 38.058594 42.351562 31.554688 42.351562 Z M 22.070312 28.214844 L 22.070312 30.542969 C 22.070312 35.789062 26.304688 40.027344 31.554688 40.027344 C 36.746094 40.027344 41.039062 35.789062 41.039062 30.542969 L 41.039062 28.214844 C 39.488281 27.5 38.234375 26.84375 37.222656 26.304688 C 34.238281 24.816406 32.75 24.097656 31.4375 24.097656 C 30.003906 24.097656 28.394531 24.933594 25.171875 26.605469 C 24.277344 27.082031 23.265625 27.617188 22.070312 28.214844 Z M 22.070312 28.214844 " fill-opacity="1" fill-rule="evenodd"/><path fill="#f8f7f6" d="M 27.320312 52.910156 C 27.261719 52.910156 27.261719 52.910156 27.261719 52.910156 C 26.902344 52.910156 26.605469 52.730469 26.425781 52.492188 L 19.683594 44.558594 C 19.386719 44.261719 19.328125 43.785156 19.445312 43.425781 C 19.625 43.007812 19.921875 42.710938 20.339844 42.652344 C 21.117188 42.53125 21.953125 42.472656 22.785156 42.472656 L 25.710938 42.472656 C 25.949219 42.472656 26.1875 42.53125 26.367188 42.652344 L 32.210938 46.707031 C 32.511719 46.886719 32.6875 47.242188 32.6875 47.542969 C 32.75 47.898438 32.628906 48.257812 32.332031 48.496094 L 28.09375 52.613281 C 27.917969 52.792969 27.617188 52.910156 27.320312 52.910156 Z M 22.90625 44.796875 L 27.378906 50.046875 L 29.707031 47.78125 L 25.351562 44.796875 Z M 22.90625 44.796875 " fill-opacity="1" fill-rule="evenodd"/><path fill="#f8f7f6" d="M 31.554688 48.855469 C 31.316406 48.855469 31.078125 48.734375 30.898438 48.617188 L 25.054688 44.558594 C 24.753906 44.378906 24.578125 44.023438 24.578125 43.605469 L 24.578125 39.429688 C 24.578125 39.011719 24.753906 38.59375 25.171875 38.414062 C 25.53125 38.234375 26.007812 38.234375 26.367188 38.476562 C 29.46875 40.503906 33.644531 40.503906 36.746094 38.476562 C 37.101562 38.234375 37.582031 38.234375 37.9375 38.414062 C 38.296875 38.59375 38.535156 39.011719 38.535156 39.429688 L 38.535156 43.605469 C 38.535156 44.023438 38.355469 44.378906 38.058594 44.558594 L 32.210938 48.617188 C 32.03125 48.734375 31.792969 48.855469 31.554688 48.855469 Z M 26.902344 43.007812 L 31.554688 46.230469 L 36.207031 43.007812 L 36.207031 41.398438 C 33.285156 42.652344 29.824219 42.652344 26.902344 41.398438 Z M 26.902344 43.007812 " fill-opacity="1" fill-rule="evenodd"/><path fill="#f8f7f6" d="M 45.214844 68.359375 C 44.558594 68.359375 44.023438 67.824219 44.023438 67.226562 L 44.023438 59.113281 C 44.023438 58.457031 44.558594 57.921875 45.214844 57.921875 C 45.871094 57.921875 46.410156 58.457031 46.410156 59.113281 L 46.410156 67.226562 C 46.410156 67.824219 45.871094 68.359375 45.214844 68.359375 Z M 45.214844 68.359375 " fill-opacity="1" fill-rule="evenodd"/><path fill="#f8f7f6" d="M 17.894531 68.359375 C 17.238281 68.359375 16.703125 67.824219 16.703125 67.226562 L 16.703125 59.113281 C 16.703125 58.457031 17.238281 57.921875 17.894531 57.921875 C 18.492188 57.921875 19.027344 58.457031 19.027344 59.113281 L 19.027344 67.226562 C 19.027344 67.824219 18.550781 68.359375 17.894531 68.359375 Z M 17.894531 68.359375 " fill-opacity="1" fill-rule="evenodd"/><path fill="#f8f7f6" d="M 42.171875 28.632812 C 41.515625 28.632812 41.039062 28.09375 41.039062 27.5 L 41.039062 24.398438 C 41.039062 19.148438 36.746094 14.914062 31.554688 14.914062 C 26.304688 14.914062 22.070312 19.148438 22.070312 24.398438 L 22.070312 27.5 C 22.070312 28.09375 21.535156 28.632812 20.9375 28.632812 C 20.28125 28.632812 19.746094 28.09375 19.746094 27.5 L 19.746094 24.398438 C 19.746094 17.894531 25.054688 12.585938 31.554688 12.585938 C 38.058594 12.585938 43.367188 17.894531 43.367188 24.398438 L 43.367188 27.5 C 43.367188 28.09375 42.828125 28.632812 42.171875 28.632812 Z M 42.171875 28.632812 " fill-opacity="1" fill-rule="evenodd"/><path fill="#f8f7f6" d="M 86.253906 24.636719 L 67.523438 24.636719 C 66.867188 24.636719 66.332031 24.097656 66.332031 23.503906 L 66.332031 10.378906 C 66.332031 9.78125 66.867188 9.246094 67.523438 9.246094 L 86.253906 9.246094 C 86.910156 9.246094 87.390625 9.78125 87.390625 10.378906 L 87.390625 23.503906 C 87.449219 24.097656 86.910156 24.636719 86.253906 24.636719 Z M 68.660156 22.308594 L 85.0625 22.308594 L 85.0625 11.574219 L 68.660156 11.574219 Z M 68.660156 22.308594 " fill-opacity="1" fill-rule="evenodd"/><path fill="#f8f7f6" d="M 94.128906 24.636719 C 93.949219 24.636719 93.769531 24.578125 93.59375 24.515625 L 85.71875 20.519531 C 85.359375 20.339844 85.0625 19.921875 85.0625 19.507812 L 85.0625 14.375 C 85.0625 13.957031 85.359375 13.539062 85.71875 13.363281 L 93.59375 9.363281 C 93.949219 9.1875 94.367188 9.1875 94.726562 9.425781 C 95.082031 9.605469 95.261719 10.019531 95.261719 10.378906 L 95.261719 23.503906 C 95.261719 23.859375 95.082031 24.277344 94.726562 24.457031 C 94.546875 24.578125 94.308594 24.636719 94.128906 24.636719 Z M 87.449219 18.789062 L 92.9375 21.59375 L 92.9375 12.289062 L 87.449219 15.089844 Z M 87.449219 18.789062 " fill-opacity="1" fill-rule="evenodd"/><path fill="#f8f7f6" d="M 72.175781 58.996094 C 64.304688 58.996094 57.863281 53.6875 57.863281 47.183594 C 57.863281 40.683594 64.304688 35.433594 72.175781 35.433594 C 80.109375 35.433594 86.554688 40.683594 86.554688 47.183594 C 86.554688 53.6875 80.109375 58.996094 72.175781 58.996094 Z M 72.175781 37.757812 C 65.554688 37.757812 60.1875 41.996094 60.1875 47.183594 C 60.1875 52.433594 65.554688 56.667969 72.175781 56.667969 C 78.800781 56.667969 84.226562 52.433594 84.226562 47.183594 C 84.226562 41.996094 78.800781 37.757812 72.175781 37.757812 Z M 72.175781 37.757812 " fill-opacity="1" fill-rule="evenodd"/><path fill="#f8f7f6" d="M 79.214844 44.378906 L 65.140625 44.378906 C 64.484375 44.378906 64.003906 43.902344 64.003906 43.246094 C 64.003906 42.589844 64.484375 42.054688 65.140625 42.054688 L 79.214844 42.054688 C 79.871094 42.054688 80.410156 42.589844 80.410156 43.246094 C 80.410156 43.902344 79.871094 44.378906 79.214844 44.378906 Z M 79.214844 44.378906 " fill-opacity="1" fill-rule="evenodd"/><path fill="#f8f7f6" d="M 79.214844 48.375 L 65.140625 48.375 C 64.484375 48.375 64.003906 47.839844 64.003906 47.183594 C 64.003906 46.527344 64.484375 46.050781 65.140625 46.050781 L 79.214844 46.050781 C 79.871094 46.050781 80.410156 46.527344 80.410156 47.183594 C 80.410156 47.839844 79.871094 48.375 79.214844 48.375 Z M 79.214844 48.375 " fill-opacity="1" fill-rule="evenodd"/><path fill="#f8f7f6" d="M 79.214844 52.3125 L 65.140625 52.3125 C 64.484375 52.3125 64.003906 51.777344 64.003906 51.179688 C 64.003906 50.523438 64.484375 49.988281 65.140625 49.988281 L 79.214844 49.988281 C 79.871094 49.988281 80.410156 50.523438 80.410156 51.179688 C 80.410156 51.777344 79.871094 52.3125 79.214844 52.3125 Z M 79.214844 52.3125 " fill-opacity="1" fill-rule="evenodd"/><g clip-path="url(#da7a545d4c)"><g clip-path="url(#b9996b0f7a)"><g transform="matrix(1, 0, 0, 1, 45, 75)"><g clip-path="url(#fe0b4eb7fb)"><g clip-path="url(#e0d5dabe21)"><g clip-path="url(#ef59480fd5)"><path fill="#f8f7f6" d="M 0.121094 0.5 L 3.871094 0.5 L 3.871094 4.25 L 0.121094 4.25 Z M 0.121094 0.5 " fill-opacity="1" fill-rule="nonzero"/></g></g></g></g></g></g></svg>